<?xml version="1.0" standalone="no"?>
<!DOCTYPE svg PUBLIC "-//W3C//DTD SVG 20010904//EN"
 "http://www.w3.org/TR/2001/REC-SVG-20010904/DTD/svg10.dtd">
<svg version="1.0" xmlns="http://www.w3.org/2000/svg"
 width="1080.000000pt" height="1920.000000pt" viewBox="0 0 1080.000000 1920.000000"
 preserveAspectRatio="xMidYMid meet">
<metadata>
Created by potrace 1.16, written by Peter Selinger 2001-2019
</metadata>
<g transform="translate(0.000000,1920.000000) scale(0.100000,-0.100000)"
fill="#000000" stroke="none">
<path d="M5998 13890 c-28 -21 -27 -18 -343 -840 -114 -294 -242 -626 -286
-738 -43 -112 -79 -216 -79 -231 0 -69 93 -106 141 -57 15 15 72 148 156 367
73 189 184 479 248 644 221 568 295 767 295 792 0 32 -51 83 -83 83 -13 0 -36
-9 -49 -20z"/>
<path d="M4893 13315 c-186 -146 -353 -281 -370 -300 -32 -33 -40 -65 -27
-100 5 -12 364 -300 695 -557 64 -49 138 -32 155 37 4 15 2 37 -4 50 -6 12
-146 129 -311 259 -165 130 -302 240 -305 245 -3 5 22 30 57 57 328 256 544
430 554 448 20 35 15 66 -16 97 -56 55 -56 55 -428 -236z"/>
<path d="M6116 13558 c-37 -32 -43 -76 -16 -110 12 -15 154 -132 316 -259 162
-127 294 -234 294 -237 -1 -4 -138 -115 -306 -246 -190 -149 -309 -249 -315
-265 -22 -56 18 -111 79 -111 34 0 70 25 382 271 190 148 355 281 368 295 24
28 29 79 9 105 -10 13 -430 347 -661 526 -77 60 -110 66 -150 31z"/>
<path d="M3170 11825 l0 -115 233 0 c127 0 248 -5 268 -10 139 -39 134 -234
-6 -269 -25 -6 -139 -11 -270 -11 l-225 0 2 -367 3 -368 104 -3 c67 -2 108 1
117 9 11 9 14 59 14 256 l0 244 67 -3 67 -3 111 -240 c61 -132 114 -246 118
-252 9 -15 242 -19 251 -5 3 5 -50 127 -117 272 -113 245 -120 264 -103 274
163 96 212 182 204 360 -7 143 -61 236 -170 292 -89 45 -153 54 -420 54 l-248
0 0 -115z"/>
<path d="M4312 11318 c-133 -342 -239 -625 -236 -630 3 -4 57 -8 119 -8 102 0
115 2 124 19 6 10 61 162 122 337 61 176 115 326 119 334 8 13 9 13 14 0 3 -8
59 -166 124 -350 l119 -335 113 -3 c62 -1 117 1 122 6 6 6 -29 109 -85 253
-117 300 -377 969 -384 987 -3 6 -11 12 -17 12 -8 0 -116 -265 -254 -622z"/>
<path d="M5818 11497 l-3 -443 -28 -42 c-40 -61 -111 -94 -201 -94 -107 0
-178 37 -216 112 -19 37 -20 59 -20 360 l0 320 -120 0 -121 0 3 -352 c3 -343
4 -355 26 -411 29 -70 112 -163 179 -199 84 -46 158 -62 273 -62 81 1 120 6
170 23 137 47 233 138 270 258 19 61 20 92 20 519 l0 454 -114 0 -115 0 -3
-443z"/>
<path d="M6107 11933 c-4 -3 -7 -179 -7 -390 l0 -383 120 0 120 0 0 390 0 390
-113 0 c-63 0 -117 -3 -120 -7z"/>
<path d="M7232 11313 l3 -628 115 0 115 0 3 257 2 258 253 2 252 3 0 110 0
110 -252 3 -253 2 0 140 0 140 178 2 177 3 0 110 0 110 -298 3 -297 2 2 -627z"/>
<path d="M6104 10907 c-2 -7 -3 -60 -2 -118 l3 -104 345 0 345 0 3 109 c2 81
-1 112 -10 118 -7 4 -163 8 -346 8 -266 0 -334 -3 -338 -13z"/>
<path d="M8054 10866 c-25 -25 -34 -43 -34 -67 0 -80 80 -138 150 -109 88 36
96 157 13 199 -44 22 -92 14 -129 -23z"/>
<path d="M4400 10345 l0 -117 81 4 c77 3 82 5 110 36 23 25 29 42 29 77 0 35
-6 52 -29 77 -28 31 -33 33 -110 36 l-81 4 0 -117z m163 57 c28 -29 28 -85 -1
-114 -17 -17 -34 -22 -74 -23 l-53 0 -3 69 c-2 38 0 76 3 84 8 22 101 11 128
-16z"/>
<path d="M4700 10345 l0 -115 85 0 c69 0 85 3 85 15 0 12 -14 15 -65 15 l-65
0 0 35 0 34 58 3 c43 2 57 7 57 18 0 11 -14 16 -57 18 -57 3 -58 4 -58 32 l0
30 65 0 c51 0 65 3 65 15 0 12 -16 15 -85 15 l-85 0 0 -115z"/>
<path d="M4940 10454 c0 -3 21 -55 47 -115 63 -146 72 -146 133 -2 25 58 47
110 49 115 2 6 -7 8 -19 6 -17 -2 -28 -20 -53 -85 -18 -45 -36 -84 -41 -85 -5
-2 -25 36 -44 85 -27 64 -41 87 -54 87 -10 0 -18 -3 -18 -6z"/>
<path d="M5240 10345 l0 -115 85 0 c69 0 85 3 85 15 0 12 -14 15 -65 15 l-65
0 0 35 0 35 56 0 c47 0 55 3 52 18 -2 13 -16 18 -58 22 -30 3 -54 8 -52 13 1
4 2 16 2 27 0 18 7 20 65 20 51 0 65 3 65 15 0 12 -16 15 -85 15 l-85 0 0
-115z"/>
<path d="M5790 10443 c-35 -24 -48 -43 -56 -80 -8 -40 17 -94 55 -116 36 -21
102 -22 140 -2 28 14 61 68 61 99 0 35 -30 85 -59 100 -40 21 -110 20 -141 -1z
m113 -25 c32 -17 46 -39 46 -73 0 -76 -87 -111 -148 -59 -23 19 -31 34 -31 59
0 61 77 103 133 73z"/>
<path d="M6070 10345 c0 -94 3 -115 14 -115 10 0 16 14 18 43 l3 42 56 5 c70
6 89 21 89 71 0 53 -26 69 -112 69 l-68 0 0 -115z"/>
<path d="M6340 10345 l0 -115 85 0 c68 0 85 3 85 15 0 11 -16 15 -67 17 l-68
3 -3 33 -3 32 61 0 c53 0 61 2 58 18 -2 13 -15 18 -61 20 -56 3 -57 4 -57 32
l0 30 70 0 c56 0 70 3 70 15 0 12 -16 15 -85 15 l-85 0 0 -115z"/>
<path d="M6600 10345 c0 -94 3 -115 14 -115 10 0 16 14 18 43 3 39 5 42 34 45
28 3 35 -2 60 -42 21 -33 36 -46 52 -46 23 0 23 0 -6 43 l-30 42 24 28 c31 36
30 62 -1 92 -21 22 -33 25 -95 25 l-70 0 0 -115z"/>
<path d="M3608 4474 c-5 -4 -8 -67 -8 -141 l0 -133 25 0 c24 0 25 3 25 55 0
48 3 55 19 55 13 0 31 -19 53 -55 27 -45 38 -54 61 -55 l28 0 -36 56 -36 56
26 19 c33 26 36 96 5 124 -21 19 -148 34 -162 19z"/>
<path d="M3915 4463 c-19 -50 -85 -246 -85 -254 0 -5 9 -9 21 -9 13 0 23 10
30 30 11 29 13 30 69 30 57 0 59 -1 65 -30 5 -24 12 -30 32 -30 16 0 23 5 21
13 -3 6 -24 69 -47 140 -41 123 -44 127 -71 127 -17 0 -30 -7 -35 -17z"/>
<path d="M4114 4466 c-4 -9 -5 -61 -2 -116 3 -92 6 -102 29 -126 20 -20 37
-26 70 -26 101 -2 119 24 119 177 0 105 0 106 -22 103 -22 -3 -23 -8 -26 -107
-1 -58 -8 -111 -14 -118 -13 -17 -84 -17 -95 0 -4 6 -10 59 -13 117 -4 90 -8
105 -23 108 -9 2 -20 -4 -23 -12z"/>
<path d="M4400 4340 l0 -140 80 0 c73 0 80 2 80 20 0 16 -8 19 -57 22 l-58 3
-3 118 c-2 109 -4 117 -22 117 -19 0 -20 -7 -20 -140z"/>
<path d="M4643 4460 c-66 -40 -70 -189 -6 -240 36 -28 120 -28 157 1 24 19 26
23 13 37 -13 13 -18 13 -38 -2 -37 -25 -84 -21 -109 12 -30 37 -24 126 10 154
27 22 68 23 90 3 19 -17 50 -10 50 11 0 20 -53 44 -97 44 -21 0 -52 -9 -70
-20z"/>
<path d="M4909 4465 c-38 -21 -52 -63 -47 -146 3 -63 7 -74 31 -95 37 -31 112
-33 150 -4 64 51 51 224 -19 250 -36 14 -85 12 -115 -5z m104 -43 c41 -45 25
-174 -22 -180 -66 -10 -100 38 -87 121 8 51 31 77 66 77 15 0 34 -8 43 -18z"/>
<path d="M5135 4468 c-3 -8 -4 -70 -3 -139 l3 -124 72 0 c66 0 75 3 100 27 22
23 28 38 31 90 7 111 -24 147 -133 156 -50 4 -66 2 -70 -10z m137 -55 c13 -12
18 -30 18 -72 0 -31 -4 -61 -8 -67 -11 -18 -48 -34 -76 -34 l-26 0 0 95 0 95
37 0 c20 0 45 -7 55 -17z"/>
<path d="M5400 4340 l0 -140 85 0 c78 0 85 2 85 20 0 16 -8 19 -62 22 l-63 3
-3 38 -3 37 55 0 c49 0 56 3 56 19 0 17 -8 20 -52 23 -52 3 -53 4 -56 35 l-3
32 63 3 c57 3 63 5 66 26 3 21 1 22 -82 22 l-86 0 0 -140z"/>
<path d="M5630 4340 c0 -133 1 -140 20 -140 18 0 20 7 20 55 0 48 2 55 20 55
13 0 32 -19 56 -55 27 -41 43 -55 60 -55 30 0 30 2 -6 55 -35 51 -36 56 -10
72 24 15 35 69 21 105 -12 31 -59 48 -133 48 l-48 0 0 -140z"/>
<path d="M6033 4460 c-69 -42 -70 -196 -2 -244 37 -25 122 -21 155 8 l28 23
-22 12 c-18 10 -25 9 -38 -4 -16 -16 -71 -20 -90 -7 -21 13 -34 51 -34 95 0
80 60 122 117 82 20 -14 53 -12 53 4 -1 47 -108 67 -167 31z"/>
<path d="M6291 4464 c-64 -45 -68 -178 -9 -241 31 -34 119 -33 153 1 28 28 39
78 33 148 -4 42 -11 57 -37 80 -37 33 -102 38 -140 12z m113 -46 c10 -14 16
-44 16 -78 0 -71 -19 -100 -65 -100 -50 0 -69 32 -63 111 3 45 10 65 23 75 29
21 72 17 89 -8z"/>
<path d="M6530 4340 c0 -133 1 -140 20 -140 19 0 20 7 20 103 l1 102 35 -67
c19 -38 40 -68 48 -68 7 0 30 30 49 68 l36 67 1 -102 c0 -96 1 -103 20 -103
19 0 20 7 20 140 l0 140 -25 0 c-21 0 -31 -12 -61 -71 l-36 -72 -18 31 c-11
17 -28 49 -40 71 -16 31 -26 41 -45 41 l-25 0 0 -140z"/>
<path d="M6968 4474 c-5 -4 -8 -68 -8 -142 l0 -134 80 4 c64 2 84 7 100 24 29
29 30 82 1 105 -21 17 -21 20 -7 41 41 59 7 99 -91 105 -38 3 -71 2 -75 -3z"/>
<path d="M7220 4341 l0 -141 25 0 c24 0 25 3 25 55 0 74 23 74 70 0 25 -40 41
-55 58 -55 28 0 28 4 -8 61 l-31 47 26 26 c18 18 25 36 25 64 0 57 -24 74
-115 80 l-75 5 0 -142z"/>
</g>
</svg>
